<svg xmlns="http://www.w3.org/2000/svg" viewBox="0 0 1060 780" font-family="'Courier New', monospace" font-size="11">

  <!-- Background -->
  <rect width="1060" height="780" fill="#f5f5f0"/>

  <!-- Title -->
  <rect x="0" y="0" width="1060" height="44" fill="#2c3e50"/>
  <text x="530" y="28" text-anchor="middle" fill="white" font-size="17" font-weight="bold" font-family="Arial">Calendar V3 — Raspberry Pi GPIO Wiring</text>

  <!-- ── Legend ─────────────────────────────────────────────────────── -->
  <rect x="20" y="54" width="380" height="22" fill="none"/>
  <rect x="22" y="58" width="12" height="10" fill="#cc0000"/><text x="38" y="68" fill="#333">5 V</text>
  <rect x="72" y="58" width="12" height="10" fill="#e07000"/><text x="88" y="68" fill="#333">3.3 V</text>
  <rect x="132" y="58" width="12" height="10" fill="#444444"/><text x="148" y="68" fill="#333">GND</text>
  <rect x="192" y="58" width="12" height="10" fill="#0055cc"/><text x="208" y="68" fill="#333">PIR signal</text>
  <rect x="292" y="58" width="12" height="10" fill="#008844"/><text x="308" y="68" fill="#333">Button signal</text>
  <rect x="402" y="58" width="12" height="10" fill="#7722cc"/><text x="418" y="68" fill="#333">Toggle-switch signal</text>

  <!-- ── Raspberry Pi board ──────────────────────────────────────────── -->
  <rect x="30" y="84" width="210" height="654" rx="10" fill="#1e7a1e" stroke="#145214" stroke-width="2"/>
  <text x="135" y="105" text-anchor="middle" fill="white" font-size="13" font-weight="bold" font-family="Arial">Raspberry Pi</text>
  <text x="135" y="120" text-anchor="middle" fill="#aaffaa" font-size="10" font-family="Arial">GPIO (40-pin)</text>

  <!-- Pin rows — connection points at x=240 (right of board edge) -->
  <!-- Format: circle on board edge + label inside board -->

  <!-- ① Pin 1  3.3V  y=148 -->
  <circle cx="240" cy="148" r="5" fill="#e07000" stroke="#a05000" stroke-width="1.5"/>
  <text x="228" y="152" text-anchor="end" fill="white" font-size="10">Pin 1 · 3.3V</text>

  <!-- ② Pin 2  5V    y=178 -->
  <circle cx="240" cy="178" r="5" fill="#cc0000" stroke="#880000" stroke-width="1.5"/>
  <text x="228" y="182" text-anchor="end" fill="white" font-size="10">Pin 2 · 5V</text>

  <!-- ③ Pin 6  GND   y=208 -->
  <circle cx="240" cy="208" r="5" fill="#444" stroke="#222" stroke-width="1.5"/>
  <text x="228" y="212" text-anchor="end" fill="white" font-size="10">Pin 6 · GND</text>

  <!-- ④ Pin 7  GPIO4 y=248 -->
  <circle cx="240" cy="248" r="5" fill="#0055cc" stroke="#003388" stroke-width="1.5"/>
  <text x="228" y="252" text-anchor="end" fill="white" font-size="10">Pin 7 · GPIO4</text>

  <!-- ⑤ Pin 20 GND   y=298 -->
  <circle cx="240" cy="298" r="5" fill="#444" stroke="#222" stroke-width="1.5"/>
  <text x="228" y="302" text-anchor="end" fill="white" font-size="10">Pin 20 · GND</text>

  <!-- ⑥ Pin 23 GPIO11 y=338 -->
  <circle cx="240" cy="338" r="5" fill="#008844" stroke="#005522" stroke-width="1.5"/>
  <text x="228" y="342" text-anchor="end" fill="white" font-size="10">Pin 23 · GPIO11</text>

  <!-- ⑦ Pin 24 GPIO8  y=368 -->
  <circle cx="240" cy="368" r="5" fill="#008844" stroke="#005522" stroke-width="1.5"/>
  <text x="228" y="372" text-anchor="end" fill="white" font-size="10">Pin 24 · GPIO8</text>

  <!-- ⑧ Pin 29 GPIO5  y=418 -->
  <circle cx="240" cy="418" r="5" fill="#7722cc" stroke="#551188" stroke-width="1.5"/>
  <text x="228" y="422" text-anchor="end" fill="white" font-size="10">Pin 29 · GPIO5</text>

  <!-- ⑨ Pin 31 GPIO6  y=444 -->
  <circle cx="240" cy="444" r="5" fill="#7722cc" stroke="#551188" stroke-width="1.5"/>
  <text x="228" y="448" text-anchor="end" fill="white" font-size="10">Pin 31 · GPIO6</text>

  <!-- ⑩ Pin 32 GPIO12 y=470 -->
  <circle cx="240" cy="470" r="5" fill="#7722cc" stroke="#551188" stroke-width="1.5"/>
  <text x="228" y="474" text-anchor="end" fill="white" font-size="10">Pin 32 · GPIO12</text>

  <!-- ⑪ Pin 33 GPIO13 y=496 -->
  <circle cx="240" cy="496" r="5" fill="#7722cc" stroke="#551188" stroke-width="1.5"/>
  <text x="228" y="500" text-anchor="end" fill="white" font-size="10">Pin 33 · GPIO13</text>

  <!-- ⑫ Pin 35 GPIO19 y=522 -->
  <circle cx="240" cy="522" r="5" fill="#7722cc" stroke="#551188" stroke-width="1.5"/>
  <text x="228" y="526" text-anchor="end" fill="white" font-size="10">Pin 35 · GPIO19</text>

  <!-- ⑬ Pin 36 GPIO16 y=548 -->
  <circle cx="240" cy="548" r="5" fill="#7722cc" stroke="#551188" stroke-width="1.5"/>
  <text x="228" y="552" text-anchor="end" fill="white" font-size="10">Pin 36 · GPIO16</text>

  <!-- ⑭ Pin 37 GPIO26 y=574 -->
  <circle cx="240" cy="574" r="5" fill="#7722cc" stroke="#551188" stroke-width="1.5"/>
  <text x="228" y="578" text-anchor="end" fill="white" font-size="10">Pin 37 · GPIO26</text>

  <!-- ⑮ Pin 39 GND   y=614 -->
  <circle cx="240" cy="614" r="5" fill="#444" stroke="#222" stroke-width="1.5"/>
  <text x="228" y="618" text-anchor="end" fill="white" font-size="10">Pin 39 · GND</text>


  <!-- ══════════════════════════════════════════════════════════════════
       POWER RAILS  (vertical buses running between Pi and components)
       ══════════════════════════════════════════════════════════════════ -->

  <!-- 3.3V rail  x=290, y=148 → y=740 -->
  <line x1="290" y1="148" x2="290" y2="740" stroke="#e07000" stroke-width="2" stroke-dasharray="6,3"/>
  <text x="292" y="144" fill="#e07000" font-size="9">3.3V</text>

  <!-- 5V rail    x=310, y=178 → y=200 (only PIR uses 5V) -->
  <line x1="310" y1="178" x2="310" y2="200" stroke="#cc0000" stroke-width="2"/>

  <!-- GND rail   x=330, y=208 → y=740 -->
  <line x1="330" y1="208" x2="330" y2="740" stroke="#444" stroke-width="2" stroke-dasharray="6,3"/>
  <text x="332" y="144" fill="#444" font-size="9">GND</text>

  <!-- Wire: Pin 1 → 3.3V rail -->
  <line x1="240" y1="148" x2="290" y2="148" stroke="#e07000" stroke-width="2"/>
  <!-- Wire: Pin 2 → 5V rail -->
  <line x1="240" y1="178" x2="310" y2="178" stroke="#cc0000" stroke-width="2"/>
  <!-- Wire: Pin 6 → GND rail -->
  <line x1="240" y1="208" x2="330" y2="208" stroke="#444" stroke-width="2"/>
  <!-- Wire: Pin 20 → GND rail tap -->
  <line x1="240" y1="298" x2="330" y2="298" stroke="#444" stroke-width="2"/>
  <circle cx="330" cy="298" r="3" fill="#444"/>
  <!-- Wire: Pin 39 → GND rail tap -->
  <line x1="240" y1="614" x2="330" y2="614" stroke="#444" stroke-width="2"/>
  <circle cx="330" cy="614" r="3" fill="#444"/>


  <!-- ══════════════════════════════════════════════════════════════════
       PIR SENSOR  (HC-SR501)
       ══════════════════════════════════════════════════════════════════ -->
  <rect x="560" y="84" width="180" height="100" rx="6" fill="#fdf0d0" stroke="#c08020" stroke-width="2"/>
  <text x="650" y="105" text-anchor="middle" fill="#7a4500" font-size="12" font-weight="bold" font-family="Arial">PIR Sensor</text>
  <text x="650" y="120" text-anchor="middle" fill="#7a4500" font-size="10" font-family="Arial">HC-SR501</text>
  <!-- Pins on left edge of PIR box -->
  <circle cx="560" cy="114" r="4" fill="#cc0000"/>
  <text x="556" y="118" text-anchor="end" fill="#cc0000" font-size="10">VCC (5V)</text>
  <circle cx="560" cy="134" r="4" fill="#444"/>
  <text x="556" y="138" text-anchor="end" fill="#444" font-size="10">GND</text>
  <circle cx="560" cy="154" r="4" fill="#0055cc"/>
  <text x="556" y="158" text-anchor="end" fill="#0055cc" font-size="10">OUT</text>
  <text x="650" y="174" text-anchor="middle" fill="#888" font-size="9" font-family="Arial">adjust delay + sensitivity</text>

  <!-- Wire: GPIO4 → PIR OUT  y=248 → y=154 -->
  <polyline points="240,248 380,248 380,154 560,154" fill="none" stroke="#0055cc" stroke-width="2"/>

  <!-- Wire: 5V rail → PIR VCC -->
  <line x1="310" y1="200" x2="310" y2="114" stroke="#cc0000" stroke-width="2"/>
  <polyline points="310,114 560,114" fill="none" stroke="#cc0000" stroke-width="2"/>

  <!-- Wire: GND → PIR GND -->
  <polyline points="330,240 355,240 355,134 560,134" fill="none" stroke="#444" stroke-width="2"/>
  <circle cx="330" cy="240" r="3" fill="#444"/>


  <!-- ══════════════════════════════════════════════════════════════════
       BUTTONS (internal pull-up — no external resistor)
       ══════════════════════════════════════════════════════════════════ -->
  <rect x="560" y="220" width="360" height="130" rx="6" fill="#d8f0d8" stroke="#206020" stroke-width="2"/>
  <text x="740" y="240" text-anchor="middle" fill="#1a4a1a" font-size="12" font-weight="bold" font-family="Arial">Push Buttons</text>
  <text x="740" y="256" text-anchor="middle" fill="#2a6a2a" font-size="10" font-family="Arial">internal pull-up — no resistor needed</text>

  <!-- Toggle-view button -->
  <text x="580" y="278" fill="#1a4a1a" font-size="11" font-family="Arial">Toggle View (GPIO11, BCM)</text>
  <rect x="700" y="268" width="30" height="16" rx="3" fill="white" stroke="#206020" stroke-width="1.5"/>
  <text x="715" y="280" text-anchor="middle" fill="#206020" font-size="9">BTN</text>
  <line x1="580" y1="276" x2="700" y2="276" stroke="#008844" stroke-width="1.5"/>
  <line x1="730" y1="276" x2="790" y2="276" stroke="#444" stroke-width="1.5"/>
  <text x="795" y="280" fill="#444" font-size="10">→ GND</text>

  <!-- Refresh button -->
  <text x="580" y="314" fill="#1a4a1a" font-size="11" font-family="Arial">Refresh (GPIO8, BCM)</text>
  <rect x="700" y="304" width="30" height="16" rx="3" fill="white" stroke="#206020" stroke-width="1.5"/>
  <text x="715" y="316" text-anchor="middle" fill="#206020" font-size="9">BTN</text>
  <line x1="580" y1="312" x2="700" y2="312" stroke="#008844" stroke-width="1.5"/>
  <line x1="730" y1="312" x2="790" y2="312" stroke="#444" stroke-width="1.5"/>
  <text x="795" y="316" fill="#444" font-size="10">→ GND</text>
  <text x="740" y="340" text-anchor="middle" fill="#555" font-size="9" font-family="Arial">GND side connects to Pi Pin 20 or Pin 39</text>

  <!-- Wire: GPIO11 → button -->
  <polyline points="240,338 395,338 395,276 580,276" fill="none" stroke="#008844" stroke-width="2"/>
  <!-- Wire: GPIO8 → button -->
  <polyline points="240,368 410,368 410,312 580,312" fill="none" stroke="#008844" stroke-width="2"/>


  <!-- ══════════════════════════════════════════════════════════════════
       TOGGLE SWITCHES (7×)  with 1 kΩ pull-down
       ══════════════════════════════════════════════════════════════════ -->
  <rect x="370" y="390" width="660" height="346" rx="6" fill="#ede8f8" stroke="#5511aa" stroke-width="2"/>
  <text x="700" y="412" text-anchor="middle" fill="#3a1166" font-size="12" font-weight="bold" font-family="Arial">Calendar Toggle Switches (×7)</text>
  <text x="700" y="428" text-anchor="middle" fill="#5522aa" font-size="10" font-family="Arial">each switch: 3.3V → SW → GPIOx · GPIOx → 1 kΩ → GND</text>

  <!-- Column headers -->
  <text x="392" y="448" fill="#555" font-size="10">GPIO (BCM)</text>
  <text x="490" y="448" fill="#555" font-size="10">Phys Pin</text>
  <text x="560" y="448" fill="#555" font-size="10">3.3V</text>
  <text x="610" y="448" fill="#555" font-size="10">Switch</text>
  <text x="680" y="448" fill="#555" font-size="10">Signal</text>
  <text x="740" y="448" fill="#555" font-size="10">1 kΩ</text>
  <text x="800" y="448" fill="#555" font-size="10">GND</text>
  <text x="870" y="448" fill="#555" font-size="10">Calendar</text>

  <!-- Switch rows -->
  <!-- y spacing: 36 each, starting y=460 -->

  <!-- SW1 GPIO5 pin29 y=466 -->
  <text x="392" y="470" fill="#3a1166" font-size="11">GPIO5</text>
  <text x="492" y="470" fill="#555" font-size="11">29</text>
  <!-- 3.3V dot -->
  <circle cx="558" cy="466" r="4" fill="#e07000"/>
  <line x1="558" y1="466" x2="610" y2="466" stroke="#e07000" stroke-width="1.5"/>
  <!-- Switch symbol -->
  <rect x="610" y="459" width="24" height="14" rx="3" fill="white" stroke="#5511aa" stroke-width="1.5"/>
  <text x="622" y="470" text-anchor="middle" fill="#5511aa" font-size="8">SW</text>
  <line x1="634" y1="466" x2="680" y2="466" stroke="#7722cc" stroke-width="1.5"/>
  <!-- Resistor symbol -->
  <rect x="740" y="459" width="24" height="14" rx="2" fill="white" stroke="#444" stroke-width="1.5"/>
  <text x="752" y="470" text-anchor="middle" fill="#444" font-size="8">1kΩ</text>
  <line x1="680" y1="466" x2="740" y2="466" stroke="#7722cc" stroke-width="1.5"/>
  <line x1="764" y1="466" x2="800" y2="466" stroke="#444" stroke-width="1.5"/>
  <circle cx="800" cy="466" r="3" fill="#444"/>
  <text x="870" y="470" fill="#555" font-size="11">Cal 1</text>
  <!-- Pi wire -->
  <polyline points="240,418 680,418 680,466" fill="none" stroke="#7722cc" stroke-width="1.5"/>

  <!-- SW2 GPIO6 pin31 y=502 -->
  <text x="392" y="506" fill="#3a1166" font-size="11">GPIO6</text>
  <text x="492" y="506" fill="#555" font-size="11">31</text>
  <circle cx="558" cy="502" r="4" fill="#e07000"/>
  <line x1="558" y1="502" x2="610" y2="502" stroke="#e07000" stroke-width="1.5"/>
  <rect x="610" y="495" width="24" height="14" rx="3" fill="white" stroke="#5511aa" stroke-width="1.5"/>
  <text x="622" y="506" text-anchor="middle" fill="#5511aa" font-size="8">SW</text>
  <line x1="634" y1="502" x2="680" y2="502" stroke="#7722cc" stroke-width="1.5"/>
  <rect x="740" y="495" width="24" height="14" rx="2" fill="white" stroke="#444" stroke-width="1.5"/>
  <text x="752" y="506" text-anchor="middle" fill="#444" font-size="8">1kΩ</text>
  <line x1="680" y1="502" x2="740" y2="502" stroke="#7722cc" stroke-width="1.5"/>
  <line x1="764" y1="502" x2="800" y2="502" stroke="#444" stroke-width="1.5"/>
  <circle cx="800" cy="502" r="3" fill="#444"/>
  <text x="870" y="506" fill="#555" font-size="11">Cal 2</text>
  <polyline points="240,444 690,444 690,502" fill="none" stroke="#7722cc" stroke-width="1.5"/>

  <!-- SW3 GPIO12 pin32 y=538 -->
  <text x="392" y="542" fill="#3a1166" font-size="11">GPIO12</text>
  <text x="492" y="542" fill="#555" font-size="11">32</text>
  <circle cx="558" cy="538" r="4" fill="#e07000"/>
  <line x1="558" y1="538" x2="610" y2="538" stroke="#e07000" stroke-width="1.5"/>
  <rect x="610" y="531" width="24" height="14" rx="3" fill="white" stroke="#5511aa" stroke-width="1.5"/>
  <text x="622" y="542" text-anchor="middle" fill="#5511aa" font-size="8">SW</text>
  <line x1="634" y1="538" x2="680" y2="538" stroke="#7722cc" stroke-width="1.5"/>
  <rect x="740" y="531" width="24" height="14" rx="2" fill="white" stroke="#444" stroke-width="1.5"/>
  <text x="752" y="542" text-anchor="middle" fill="#444" font-size="8">1kΩ</text>
  <line x1="680" y1="538" x2="740" y2="538" stroke="#7722cc" stroke-width="1.5"/>
  <line x1="764" y1="538" x2="800" y2="538" stroke="#444" stroke-width="1.5"/>
  <circle cx="800" cy="538" r="3" fill="#444"/>
  <text x="870" y="542" fill="#555" font-size="11">Cal 3</text>
  <polyline points="240,470 700,470 700,538" fill="none" stroke="#7722cc" stroke-width="1.5"/>

  <!-- SW4 GPIO13 pin33 y=574 -->
  <text x="392" y="578" fill="#3a1166" font-size="11">GPIO13</text>
  <text x="492" y="578" fill="#555" font-size="11">33</text>
  <circle cx="558" cy="574" r="4" fill="#e07000"/>
  <line x1="558" y1="574" x2="610" y2="574" stroke="#e07000" stroke-width="1.5"/>
  <rect x="610" y="567" width="24" height="14" rx="3" fill="white" stroke="#5511aa" stroke-width="1.5"/>
  <text x="622" y="578" text-anchor="middle" fill="#5511aa" font-size="8">SW</text>
  <line x1="634" y1="574" x2="680" y2="574" stroke="#7722cc" stroke-width="1.5"/>
  <rect x="740" y="567" width="24" height="14" rx="2" fill="white" stroke="#444" stroke-width="1.5"/>
  <text x="752" y="578" text-anchor="middle" fill="#444" font-size="8">1kΩ</text>
  <line x1="680" y1="574" x2="740" y2="574" stroke="#7722cc" stroke-width="1.5"/>
  <line x1="764" y1="574" x2="800" y2="574" stroke="#444" stroke-width="1.5"/>
  <circle cx="800" cy="574" r="3" fill="#444"/>
  <text x="870" y="578" fill="#555" font-size="11">Cal 4</text>
  <polyline points="240,496 710,496 710,574" fill="none" stroke="#7722cc" stroke-width="1.5"/>

  <!-- SW5 GPIO19 pin35 y=610 -->
  <text x="392" y="614" fill="#3a1166" font-size="11">GPIO19</text>
  <text x="492" y="614" fill="#555" font-size="11">35</text>
  <circle cx="558" cy="610" r="4" fill="#e07000"/>
  <line x1="558" y1="610" x2="610" y2="610" stroke="#e07000" stroke-width="1.5"/>
  <rect x="610" y="603" width="24" height="14" rx="3" fill="white" stroke="#5511aa" stroke-width="1.5"/>
  <text x="622" y="614" text-anchor="middle" fill="#5511aa" font-size="8">SW</text>
  <line x1="634" y1="610" x2="680" y2="610" stroke="#7722cc" stroke-width="1.5"/>
  <rect x="740" y="603" width="24" height="14" rx="2" fill="white" stroke="#444" stroke-width="1.5"/>
  <text x="752" y="614" text-anchor="middle" fill="#444" font-size="8">1kΩ</text>
  <line x1="680" y1="610" x2="740" y2="610" stroke="#7722cc" stroke-width="1.5"/>
  <line x1="764" y1="610" x2="800" y2="610" stroke="#444" stroke-width="1.5"/>
  <circle cx="800" cy="610" r="3" fill="#444"/>
  <text x="870" y="614" fill="#555" font-size="11">Cal 5</text>
  <polyline points="240,522 720,522 720,610" fill="none" stroke="#7722cc" stroke-width="1.5"/>

  <!-- SW6 GPIO16 pin36 y=646 -->
  <text x="392" y="650" fill="#3a1166" font-size="11">GPIO16</text>
  <text x="492" y="650" fill="#555" font-size="11">36</text>
  <circle cx="558" cy="646" r="4" fill="#e07000"/>
  <line x1="558" y1="646" x2="610" y2="646" stroke="#e07000" stroke-width="1.5"/>
  <rect x="610" y="639" width="24" height="14" rx="3" fill="white" stroke="#5511aa" stroke-width="1.5"/>
  <text x="622" y="650" text-anchor="middle" fill="#5511aa" font-size="8">SW</text>
  <line x1="634" y1="646" x2="680" y2="646" stroke="#7722cc" stroke-width="1.5"/>
  <rect x="740" y="639" width="24" height="14" rx="2" fill="white" stroke="#444" stroke-width="1.5"/>
  <text x="752" y="650" text-anchor="middle" fill="#444" font-size="8">1kΩ</text>
  <line x1="680" y1="646" x2="740" y2="646" stroke="#7722cc" stroke-width="1.5"/>
  <line x1="764" y1="646" x2="800" y2="646" stroke="#444" stroke-width="1.5"/>
  <circle cx="800" cy="646" r="3" fill="#444"/>
  <text x="870" y="650" fill="#555" font-size="11">Cal 6</text>
  <polyline points="240,548 730,548 730,646" fill="none" stroke="#7722cc" stroke-width="1.5"/>

  <!-- SW7 GPIO26 pin37 y=682 -->
  <text x="392" y="686" fill="#3a1166" font-size="11">GPIO26</text>
  <text x="492" y="686" fill="#555" font-size="11">37</text>
  <circle cx="558" cy="682" r="4" fill="#e07000"/>
  <line x1="558" y1="682" x2="610" y2="682" stroke="#e07000" stroke-width="1.5"/>
  <rect x="610" y="675" width="24" height="14" rx="3" fill="white" stroke="#5511aa" stroke-width="1.5"/>
  <text x="622" y="686" text-anchor="middle" fill="#5511aa" font-size="8">SW</text>
  <line x1="634" y1="682" x2="680" y2="682" stroke="#7722cc" stroke-width="1.5"/>
  <rect x="740" y="675" width="24" height="14" rx="2" fill="white" stroke="#444" stroke-width="1.5"/>
  <text x="752" y="686" text-anchor="middle" fill="#444" font-size="8">1kΩ</text>
  <line x1="680" y1="682" x2="740" y2="682" stroke="#7722cc" stroke-width="1.5"/>
  <line x1="764" y1="682" x2="800" y2="682" stroke="#444" stroke-width="1.5"/>
  <circle cx="800" cy="682" r="3" fill="#444"/>
  <text x="870" y="686" fill="#555" font-size="11">Cal 7</text>
  <polyline points="240,574 740,574 740,682" fill="none" stroke="#7722cc" stroke-width="1.5"/>

  <!-- 3.3V rail taps into switch row (connect bus to each SW left terminal) -->
  <line x1="290" y1="466" x2="558" y2="466" stroke="#e07000" stroke-width="1.5"/>
  <circle cx="290" cy="466" r="3" fill="#e07000"/>
  <line x1="290" y1="502" x2="558" y2="502" stroke="#e07000" stroke-width="1.5"/>
  <circle cx="290" cy="502" r="3" fill="#e07000"/>
  <line x1="290" y1="538" x2="558" y2="538" stroke="#e07000" stroke-width="1.5"/>
  <circle cx="290" cy="538" r="3" fill="#e07000"/>
  <line x1="290" y1="574" x2="558" y2="574" stroke="#e07000" stroke-width="1.5"/>
  <circle cx="290" cy="574" r="3" fill="#e07000"/>
  <line x1="290" y1="610" x2="558" y2="610" stroke="#e07000" stroke-width="1.5"/>
  <circle cx="290" cy="610" r="3" fill="#e07000"/>
  <line x1="290" y1="646" x2="558" y2="646" stroke="#e07000" stroke-width="1.5"/>
  <circle cx="290" cy="646" r="3" fill="#e07000"/>
  <line x1="290" y1="682" x2="558" y2="682" stroke="#e07000" stroke-width="1.5"/>
  <circle cx="290" cy="682" r="3" fill="#e07000"/>

  <!-- GND rail taps into switch resistors -->
  <line x1="330" y1="466" x2="330" y2="740" stroke="#444" stroke-width="2" stroke-dasharray="6,3"/>
  <line x1="330" y1="466" x2="800" y2="466" stroke="#444" stroke-width="1.5"/>
  <line x1="330" y1="502" x2="800" y2="502" stroke="#444" stroke-width="1.5"/>
  <circle cx="330" cy="502" r="3" fill="#444"/>
  <line x1="330" y1="538" x2="800" y2="538" stroke="#444" stroke-width="1.5"/>
  <circle cx="330" cy="538" r="3" fill="#444"/>
  <line x1="330" y1="574" x2="800" y2="574" stroke="#444" stroke-width="1.5"/>
  <circle cx="330" cy="574" r="3" fill="#444"/>
  <line x1="330" y1="610" x2="800" y2="610" stroke="#444" stroke-width="1.5"/>
  <circle cx="330" cy="610" r="3" fill="#444"/>
  <line x1="330" y1="646" x2="800" y2="646" stroke="#444" stroke-width="1.5"/>
  <circle cx="330" cy="646" r="3" fill="#444"/>
  <line x1="330" y1="682" x2="800" y2="682" stroke="#444" stroke-width="1.5"/>
  <circle cx="330" cy="682" r="3" fill="#444"/>

  <!-- GND bus end cap -->
  <line x1="800" y1="466" x2="800" y2="682" stroke="#444" stroke-width="1.5"/>
  <line x1="800" y1="740" x2="800" y2="740" stroke="#444" stroke-width="1"/>
  <text x="808" y="470" fill="#444" font-size="9">GND</text>
  <text x="808" y="686" fill="#444" font-size="9">bus</text>

  <!-- ── Notes ─────────────────────────────────────────────────────── -->
  <rect x="30" y="746" width="1000" height="26" rx="4" fill="#e8e8e0" stroke="#bbb" stroke-width="1"/>
  <text x="40" y="762" fill="#555" font-size="10" font-family="Arial">Notes:  Toggle switches use external 1 kΩ–10 kΩ pull-down resistor.  Push buttons use Pi internal pull-up (active-low) — no external resistor needed.  PIR sensor requires 5 V supply.</text>

</svg>
